<svg width="86" height="22" viewBox="0 0 86 22" fill="none" xmlns="http://www.w3.org/2000/svg"><path d="M13.7082 1.27802C15.0559 1.88774 16.0935 2.7539 16.8217 3.8751C17.5492 4.99629 17.9136 6.32446 17.9136 7.85887C17.9136 9.39328 17.5492 10.697 16.8217 11.828C16.0935 12.9596 15.0559 13.8251 13.7082 14.4251C12.3605 15.0257 10.7717 15.3254 8.94185 15.3254H4.78101V21.0212H0V0.363083H8.94254C10.7724 0.363083 12.3612 0.668295 13.7089 1.27802H13.7082ZM11.9522 10.5005C12.6999 9.88104 13.0734 9.00026 13.0734 7.85956C13.0734 6.71886 12.6992 5.8088 11.9522 5.18861C11.2045 4.56914 10.1125 4.25904 8.67635 4.25904H4.78101V11.4301H8.67635C10.1125 11.4301 11.2045 11.12 11.9522 10.5005Z" fill="#F82C17"/><path d="M26.7654 19.9794C25.0435 19.0548 23.6958 17.781 22.7223 16.1581C21.7481 14.5351 21.2617 12.7101 21.2617 10.6838C21.2617 8.65738 21.7488 6.83238 22.7223 5.2095C23.6965 3.58659 25.0435 2.31277 26.7654 1.38738C28.4865 0.462694 30.4197 0 32.5645 0C34.7093 0 36.6373 0.462694 38.3489 1.38738C40.0604 2.31208 41.4079 3.58586 42.3918 5.2095C43.376 6.83238 43.8678 8.65738 43.8678 10.6838C43.8678 12.7101 43.376 14.5351 42.3918 16.1581C41.4079 17.781 40.0604 19.0555 38.3489 19.9794C36.6373 20.9041 34.7087 21.3668 32.5645 21.3668C30.4203 21.3668 28.4865 20.9048 26.7654 19.9794ZM35.8696 16.4528C36.8535 15.8919 37.6255 15.11 38.1866 14.1066C38.7475 13.1032 39.0276 11.9625 39.0276 10.6831C39.0276 9.40368 38.7475 8.26298 38.1866 7.25956C37.6255 6.25612 36.8535 5.47428 35.8696 4.91333C34.8857 4.35239 33.7839 4.07227 32.5645 4.07227C31.3451 4.07227 30.2427 4.35239 29.2593 4.91333C28.2754 5.47428 27.5033 6.25612 26.9424 7.25956C26.3814 8.26298 26.1013 9.4044 26.1013 10.6831C26.1013 11.9617 26.3814 13.1032 26.9424 14.1066C27.5033 15.11 28.2747 15.8919 29.2593 16.4528C30.2427 17.0137 31.3442 17.2939 32.5645 17.2939C33.7845 17.2939 34.8857 17.0137 35.8696 16.4528Z" fill="#F82C17"/><path d="M50.8815 20.7021C49.357 20.2596 48.1318 19.684 47.207 18.9753L48.8302 15.3748C49.7158 16.0243 50.7681 16.5455 51.9882 16.9392C53.2076 17.3329 54.4279 17.5294 55.6479 17.5294C57.0054 17.5294 58.0089 17.328 58.6584 16.9245C59.3079 16.5218 59.6323 15.9852 59.6323 15.3163C59.6323 14.825 59.4409 14.416 59.057 14.0913C58.6738 13.7665 58.1811 13.5059 57.581 13.3094C56.9804 13.1129 56.1692 12.8962 55.1461 12.66C53.5721 12.2865 52.2837 11.9123 51.2802 11.5388C50.2766 11.1653 49.4161 10.5646 48.6978 9.73886C47.9793 8.91242 47.6204 7.81074 47.6204 6.43382C47.6204 5.23386 47.9452 4.14684 48.5947 3.17264C49.2439 2.19849 50.2224 1.4271 51.531 0.855703C52.8391 0.285003 54.4381 0 56.3266 0C57.6443 0 58.9337 0.157483 60.1929 0.472448C61.4518 0.787415 62.5536 1.23966 63.4977 1.82987L62.022 5.45965C60.1133 4.37817 58.2046 3.83674 56.2968 3.83674C54.9589 3.83674 53.9698 4.05345 53.3309 4.48618C52.6913 4.91891 52.372 5.48962 52.372 6.19759C52.372 6.90556 52.7408 7.43237 53.4786 7.7766C54.2168 8.12083 55.3427 8.46018 56.8576 8.79467C58.4319 9.16887 59.7204 9.54235 60.7236 9.91586C61.7271 10.2901 62.5877 10.8803 63.3062 11.6865C64.0239 12.4934 64.3836 13.5853 64.3836 14.9623C64.3836 16.1427 64.054 17.22 63.3946 18.1942C62.7354 19.1683 61.7467 19.9404 60.429 20.5111C59.1107 21.0818 57.5071 21.3668 55.6186 21.3668C53.9852 21.3668 52.4064 21.1452 50.8824 20.7028L50.8815 20.7021Z" fill="#F82C17"/><path d="M84.314 10.745L73.3668 15.9225C73.9883 16.7259 74.7889 17.2137 75.7701 17.3858C76.7513 17.5586 77.7888 17.3858 78.8828 16.8681C79.6363 16.512 80.2509 16.0841 80.7276 15.5845C81.204 15.0849 81.5791 14.4738 81.852 13.7526L85.2298 15.1176C84.6047 17.3224 82.9831 19.0436 80.3651 20.2818C78.7332 21.0539 77.1387 21.4183 75.5828 21.3752C74.0266 21.3326 72.6398 20.9069 71.4247 20.0993C70.2086 19.2916 69.2618 18.1711 68.5836 16.7364C67.9139 15.3204 67.6458 13.8836 67.7794 12.4265C67.9133 10.9701 68.4172 9.64546 69.291 8.45317C70.1639 7.2616 71.327 6.32157 72.7801 5.63453C74.1961 4.96485 75.6232 4.66314 77.0585 4.73002C78.4941 4.79693 79.8091 5.24498 81.002 6.07422C82.1949 6.90344 83.1477 8.07131 83.8605 9.57717C83.8862 9.63081 84.0375 10.0204 84.314 10.745ZM72.2958 10.7353C71.9047 11.5784 71.858 12.5003 72.1556 13.5003L79.2835 10.1291C78.7073 9.28242 77.9679 8.73818 77.0633 8.49638C76.1596 8.25458 75.2406 8.35424 74.3082 8.79532C73.3578 9.24479 72.6866 9.89142 72.2958 10.7346V10.7353Z" fill="#F82C17"/></svg>